<svg xmlns="http://www.w3.org/2000/svg" viewBox="0 0 128 128">
  <defs><linearGradient id="a" x1="20" y1="14" x2="108" y2="116" gradientUnits="userSpaceOnUse"><stop stop-color="#7C3AED"/><stop offset="1" stop-color="#2563EB"/></linearGradient><linearGradient id="b" x1="78" y1="20" x2="109" y2="50" gradientUnits="userSpaceOnUse"><stop stop-color="#67E8F9"/><stop offset="1" stop-color="#2DD4BF"/></linearGradient></defs>
  <rect width="128" height="128" rx="30" fill="#F8FAFC"/><path d="M35 26c0-5 4-9 9-9h39l17 17v65c0 6-4 10-10 10H44c-5 0-9-4-9-9V26Z" fill="#C7D2FE" opacity=".65"/><path d="M27 34c0-6 4-10 10-10h39l18 18v57c0 6-5 11-11 11H37c-6 0-10-5-10-11V34Z" fill="url(#a)"/><path d="M76 24v18h18" fill="#A5B4FC"/><path d="M44 52h31M44 66h24M44 80h31" fill="none" stroke="#fff" stroke-width="7" stroke-linecap="round"/><path d="m101 18 3.3 8.7L113 30l-8.7 3.3L101 42l-3.3-8.7L89 30l8.7-3.3L101 18Z" fill="url(#b)"/>
</svg>
